<?xml version="1.0" encoding="UTF-8"?><!DOCTYPE svg PUBLIC "-//W3C//DTD SVG 1.1//EN" "http://www.w3.org/Graphics/SVG/1.1/DTD/svg11.dtd"><svg xmlns="http://www.w3.org/2000/svg" xmlns:xlink="http://www.w3.org/1999/xlink"><defs><clipPath id="clip0"><path fill="#fff" d="M0 0h36v36H0z"/></clipPath><clipPath id="clip0"><path d="M0 0h24v24H0z"/></clipPath></defs><symbol id="icon--arrow-bottom" viewBox="0 0 12 8"><path d="M1.41.59L6 5.17 10.59.59 12 2 6 8 0 2 1.41.59z"/></symbol><symbol id="icon--arrows-left" viewBox="0 0 17 10"><path d="M16.984 4.438H2.316L5.69 1.063 4.895.268.162 5l4.733 4.733.795-.795-3.374-3.375h14.668V4.438z" fill="#D6D4D4"/></symbol><symbol id="icon--arrows-sheck" viewBox="0 0 12 8"><path d="M1.41.59L6 5.17 10.59.59 12 2 6 8 0 2 1.41.59z" fill="#00C4FF"/></symbol><symbol id="icon--basket" viewBox="0 0 20 20"><path d="M6 16c-1.1 0-1.99.9-1.99 2S4.9 20 6 20s2-.9 2-2-.9-2-2-2zM0 0v2h2l3.6 7.59-1.35 2.45c-.16.28-.25.61-.25.96 0 1.1.9 2 2 2h12v-2H6.42c-.14 0-.25-.11-.25-.25l.03-.12.9-1.63h7.45c.75 0 1.41-.41 1.75-1.03l3.58-6.49A1.003 1.003 0 0019 2H4.21l-.94-2H0zm16 16c-1.1 0-1.99.9-1.99 2s.89 2 1.99 2 2-.9 2-2-.9-2-2-2z" fill="#fff"/></symbol><symbol id="icon--chevron-down" viewBox="0 0 448 512"><path d="M207.029 381.476L12.686 187.132c-9.373-9.373-9.373-24.569 0-33.941l22.667-22.667c9.357-9.357 24.522-9.375 33.901-.04L224 284.505l154.745-154.021c9.379-9.335 24.544-9.317 33.901.04l22.667 22.667c9.373 9.373 9.373 24.569 0 33.941L240.971 381.476c-9.373 9.372-24.569 9.372-33.942 0z"/></symbol><symbol id="icon--cross" viewBox="0 0 18 18"><path d="M15 4.715L4.714 15.001 3 13.287 13.286 3z"/><path d="M13.286 15L3 4.714 4.714 3 15 13.286z"/></symbol><symbol id="icon--dish" viewBox="0 0 36 36"><g clip-path="url(#clip0)" fill="#fff"><path d="M13.961 9.17c.003.786-.647 1.446-.653 1.453l.006-.006 1.466 1.516c.132-.127 1.284-1.29 1.29-2.942.003-.708-.217-1.773-1.283-2.822-.438-.43-.652-.855-.654-1.298-.003-.785.647-1.445.654-1.452l-.007.006-1.466-1.516c-.132.128-1.283 1.29-1.29 2.942-.003.708.217 1.773 1.284 2.822.438.43.651.855.653 1.298zM18.723 9.17c.004.786-.647 1.446-.653 1.453l.006-.006 1.467 1.516c.13-.127 1.283-1.29 1.29-2.942.003-.708-.218-1.773-1.284-2.822-.438-.43-.652-.855-.654-1.298-.003-.785.647-1.445.654-1.452l-.006.006-1.467-1.516c-.132.128-1.284 1.29-1.29 2.942-.003.708.217 1.773 1.283 2.822.439.43.652.855.654 1.298zM23.485 9.17c.004.786-.647 1.446-.653 1.453l.006-.006 1.467 1.516c.13-.127 1.283-1.29 1.29-2.942.003-.708-.218-1.773-1.284-2.822-.438-.43-.652-.855-.654-1.298-.003-.785.647-1.445.654-1.452l-.006.006-1.467-1.516c-.132.128-1.283 1.29-1.29 2.942-.003.708.217 1.773 1.284 2.822.438.43.651.855.653 1.298zM32.525 27.37A17.806 17.806 0 0036 16.673l-.008-1.087H.009L0 16.634v.04L0 16.758c0 3.848 1.202 7.518 3.475 10.612a18.017 18.017 0 004.6 4.383H4.74v2.109h26.52v-2.11h-3.334a18.012 18.012 0 004.6-4.382zm1.338-9.674c-.052.896-.18 1.776-.377 2.632H2.514a15.85 15.85 0 01-.377-2.632h31.726zM23.181 31.752H12.819a15.846 15.846 0 01-9.66-9.314H32.84a15.846 15.846 0 01-9.66 9.315z"/></g></symbol><symbol id="icon--facebook" viewBox="0 0 24 24"><path d="M15.81 3.985h2.191V.169C17.623.117 16.323 0 14.809 0 11.65 0 9.486 1.987 9.486 5.639V9H6v4.266h3.486V24h4.274V13.267h3.345l.531-4.266h-3.877V6.062c.001-1.233.333-2.077 2.051-2.077z"/></symbol><symbol id="icon--map-svg" viewBox="0 0 14 20"><path d="M7 0C3.13 0 0 3.13 0 7c0 5.25 7 13 7 13s7-7.75 7-13c0-3.87-3.13-7-7-7zm0 9.5a2.5 2.5 0 010-5 2.5 2.5 0 010 5z" fill="#fff"/></symbol><symbol id="icon--minus" viewBox="0 0 18 18"><path fill="#CDCDCD" d="M3 8h12v2H3z"/></symbol><symbol id="icon--phone" viewBox="0 0 18 18"><path d="M7.61 10.32a10.185 10.185 0 003.7 2.395l1.885-1.5a.335.335 0 01.38 0l3.5 2.255a1 1 0 01.165 1.59l-1.64 1.62a2 2 0 01-1.815.535 17.545 17.545 0 01-8.575-4.5A16.895 16.895 0 01.575 4.3a1.89 1.89 0 01.55-1.775l1.7-1.64a1 1 0 011.56.16L6.715 4.5a.315.315 0 010 .375L5.18 6.72a9.875 9.875 0 002.43 3.6z" fill="#fff"/></symbol><symbol id="icon--plus" viewBox="0 0 18 18"><path fill="#CDCDCD" d="M10 3v12H8V3z"/><path fill="#CDCDCD" d="M15 10H3V8h12z"/></symbol><symbol id="icon--vk" viewBox="0 0 24 24"><g clip-path="url(#clip0)"><path d="M23.786 17.367c-.065-.108-.464-.975-2.384-2.757-2.01-1.866-1.74-1.563.681-4.79 1.475-1.965 2.065-3.165 1.88-3.678-.176-.49-1.26-.36-1.26-.36l-3.606.02s-.267-.035-.467.083c-.193.117-.318.387-.318.387s-.572 1.521-1.334 2.814c-1.606 2.73-2.25 2.873-2.512 2.704-.61-.395-.458-1.587-.458-2.433 0-2.645.4-3.748-.781-4.033-.393-.094-.681-.157-1.685-.168-1.287-.013-2.378.005-2.994.306-.411.201-.728.65-.534.675.238.032.778.146 1.065.536.37.502.357 1.633.357 1.633s.213 3.113-.497 3.5c-.487.266-1.155-.276-2.587-2.753-.734-1.267-1.289-2.67-1.289-2.67s-.106-.26-.297-.4c-.231-.17-.555-.224-.555-.224l-3.43.021s-.514.015-.703.239c-.168.2-.013.61-.013.61s2.685 6.281 5.724 9.448c2.789 2.903 5.954 2.712 5.954 2.712h1.434s.434-.048.654-.286c.204-.22.197-.63.197-.63s-.029-1.925.865-2.209c.88-.278 2.012 1.86 3.21 2.684.907.623 1.595.486 1.595.486l3.206-.045s1.677-.103.882-1.422z"/></g></symbol><symbol id="icon--youtube" viewBox="0 0 24 24"><path d="M22.775 6.376a2.819 2.819 0 00-1.983-1.983c-1.761-.482-8.804-.482-8.804-.482s-7.043 0-8.803.464a2.876 2.876 0 00-1.983 2.001c-.464 1.76-.464 5.412-.464 5.412s0 3.67.464 5.412a2.819 2.819 0 001.983 1.983c1.779.482 8.803.482 8.803.482s7.043 0 8.804-.464a2.819 2.819 0 001.983-1.983c.463-1.76.463-5.412.463-5.412s.019-3.67-.463-5.43zm-13.03 8.785V8.415l5.857 3.373-5.856 3.373z"/></symbol></svg>